<svg width="414" height="685" viewBox="0 0 414 685" fill="none" xmlns="http://www.w3.org/2000/svg">
<ellipse cx="207" cy="297" rx="287" ry="388" fill="#0ABAB5" fill-opacity="0.22"/>
<ellipse cx="207" cy="214" rx="287" ry="388" fill="#0ABAB5"/>
<path d="M350.678 172.042C348.693 161.915 345.282 152.122 340.547 142.954C322.915 109.277 289.514 86.6337 253.181 77.3473C235.133 72.7393 215.491 70.5889 196.899 72.5217C175.683 74.7297 158.826 88.8609 145.123 104.246L144.33 105.142C127.632 124.086 111.882 143.798 94 161.68C65.2 190.48 41.52 220.56 56.24 251.92C66.9536 274.749 93.008 290.32 99.76 314.64C106.16 337.68 156.72 373.52 201.52 361.36C232.01 353.085 246.806 328.65 270.941 311.114C283.984 301.629 301.507 301.091 315.683 293.558C329.731 286.09 341.021 274.442 346.89 259.542C357.68 232.202 356.4 200.387 350.678 172.042Z" fill="#0ABAB5"/>
<path opacity="0.7" d="M350.678 172.042C348.693 161.915 345.282 152.122 340.547 142.954C322.915 109.277 289.514 86.6337 253.181 77.3473C235.133 72.7393 215.491 70.5889 196.899 72.5217C175.683 74.7297 158.826 88.8609 145.123 104.246L144.33 105.142C127.632 124.086 111.882 143.798 94 161.68C65.2 190.48 41.52 220.56 56.24 251.92C66.9536 274.749 93.008 290.32 99.76 314.64C106.16 337.68 156.72 373.52 201.52 361.36C232.01 353.085 246.806 328.65 270.941 311.114C283.984 301.629 301.507 301.091 315.683 293.558C329.731 286.09 341.021 274.442 346.89 259.542C357.68 232.202 356.4 200.387 350.678 172.042Z" fill="white"/>
<path d="M65.04 105.405C67.44 106.448 73.3088 106.32 73.3152 106.32C73.3216 106.32 72.0352 102.48 71.9456 102.243C70.6528 99.5487 66.576 95.1199 63.28 95.5423C62.7299 95.6296 62.2043 95.8319 61.7377 96.136C61.271 96.4401 60.8737 96.8392 60.5718 97.3073C60.2698 97.7754 60.0699 98.3018 59.9852 98.8524C59.9005 99.4029 59.9328 99.9651 60.08 100.502C60.6368 102.8 62.992 104.509 65.04 105.405Z" fill="#0ABAB5"/>
<path d="M124.432 106.691C124.483 106.691 125.501 102.793 125.539 102.537C125.949 99.5742 125.008 93.6158 121.994 92.163C121.487 91.9353 120.938 91.8167 120.382 91.815C119.827 91.8132 119.277 91.9283 118.769 92.1528C118.261 92.3774 117.805 92.7063 117.433 93.1182C117.06 93.5301 116.778 94.0158 116.605 94.5438C115.798 96.7646 116.822 99.491 118.038 101.36C119.459 103.561 124.432 106.691 124.432 106.691Z" fill="#0ABAB5"/>
<path d="M141.962 85.4111C138.634 85.0527 134.685 89.6159 133.469 92.3423C133.36 92.5791 132.144 96.4575 132.189 96.4575H132.259C131.619 97.1679 130.979 97.9423 130.25 98.8063C128.97 100.4 127.491 102.217 126.045 104.304C124.454 106.532 122.996 108.853 121.68 111.254C120.188 113.933 118.942 116.742 117.955 119.645C117.955 119.677 117.955 119.715 117.955 119.747C117.955 118.768 117.955 116.029 117.904 115.817C117.52 112.854 115.037 107.357 111.747 106.749C111.196 106.661 110.633 106.69 110.094 106.835C109.556 106.98 109.054 107.236 108.621 107.589C108.188 107.941 107.835 108.381 107.584 108.879C107.333 109.377 107.19 109.923 107.165 110.48C106.973 112.835 108.682 115.19 110.365 116.675C112.24 118.352 117.45 119.977 117.866 120.099C116.931 123.078 116.195 126.117 115.664 129.193C115.344 130.979 115.075 132.79 114.832 134.614C114.832 133.763 114.832 133.008 114.787 132.905C114.403 129.942 111.92 124.438 108.63 123.83C108.082 123.745 107.521 123.777 106.985 123.922C106.449 124.068 105.949 124.325 105.519 124.676C105.089 125.028 104.737 125.465 104.487 125.961C104.237 126.457 104.094 127 104.067 127.555C103.875 129.91 105.578 132.265 107.267 133.75C108.957 135.235 113.328 136.72 114.48 137.104C114.397 137.801 114.301 138.499 114.218 139.197C113.814 142.557 113.43 145.91 112.938 149.187C112.771 150.339 112.56 151.472 112.355 152.605C112.355 151.849 112.355 151.216 112.317 151.12C111.933 148.157 109.45 142.659 106.16 142.051C105.611 141.964 105.049 141.994 104.513 142.139C103.976 142.284 103.475 142.54 103.045 142.892C102.614 143.244 102.262 143.682 102.013 144.179C101.763 144.676 101.622 145.22 101.597 145.776C101.398 148.125 103.107 150.486 104.797 151.971C106.486 153.456 110.474 154.806 111.837 155.254C111.594 156.413 111.35 157.565 111.062 158.672C110.851 159.421 110.691 160.163 110.422 160.905C110.154 161.648 109.949 162.377 109.712 163.101C109.213 164.483 108.701 165.91 108.176 167.248C107.818 168.182 107.459 169.059 107.107 169.949C107.286 168.803 107.594 166.55 107.6 166.358C107.563 163.729 106.851 161.152 105.533 158.877C105.545 158.583 105.527 158.29 105.482 158C105.411 157.453 105.228 156.926 104.942 156.455C104.657 155.983 104.276 155.575 103.824 155.259C103.372 154.943 102.859 154.724 102.318 154.618C101.777 154.511 101.22 154.519 100.682 154.64C97.4816 155.497 95.4016 161.174 95.248 164.157C95.248 164.336 95.3568 166.256 95.4464 167.465C95.2864 166.761 95.1328 166.077 94.96 165.353C94.6208 163.926 94.2368 162.505 93.8336 160.982L93.1936 158.768C92.9824 158.025 92.6688 157.27 92.4128 156.509C91.7728 154.761 91.0368 153.021 90.2624 151.28C91.5104 150.979 95.9392 149.853 97.7184 148.489C99.4976 147.126 101.366 144.905 101.347 142.544C101.363 141.988 101.261 141.436 101.048 140.922C100.836 140.409 100.517 139.946 100.114 139.564C99.7107 139.182 99.2313 138.889 98.7072 138.704C98.183 138.52 97.6259 138.448 97.072 138.493C93.744 138.851 90.8576 144.15 90.256 147.081C90.2176 147.261 90.0192 149.411 89.936 150.589C89.4624 149.552 88.9952 148.509 88.4768 147.472C86.992 144.477 85.392 141.494 83.8112 138.512C83.3248 137.597 82.8576 136.681 82.3776 135.766C82.8256 135.664 88.1376 134.435 90.1088 132.905C91.8816 131.549 93.7568 129.328 93.744 126.966C93.7583 126.41 93.6556 125.857 93.4425 125.344C93.2293 124.83 92.9105 124.367 92.5068 123.984C92.1031 123.601 91.6234 123.308 91.0989 123.123C90.5745 122.937 90.0169 122.865 89.4624 122.909C86.1408 123.273 83.2544 128.573 82.6464 131.497C82.6016 131.715 82.3264 134.806 82.2944 135.6C81.2 133.59 80.1952 131.6 79.28 129.539C78.0112 126.801 76.9209 123.983 76.016 121.104C76.2272 121.059 81.776 119.824 83.7984 118.237C85.5648 116.873 87.4464 114.653 87.4272 112.291C87.442 111.733 87.3386 111.178 87.1239 110.663C86.9092 110.147 86.5879 109.683 86.1812 109.301C85.7745 108.918 85.2916 108.626 84.764 108.443C84.2365 108.26 83.6762 108.191 83.12 108.24C79.792 108.598 76.9056 113.897 76.304 116.822C76.2656 117.014 76.048 119.382 75.9712 120.496H75.7792C74.9475 117.566 74.3778 114.567 74.0768 111.536C73.8912 109.872 73.808 108.278 73.7568 106.717C74.8 106.64 79.6384 106 81.6288 104.79C83.6192 103.581 85.68 101.629 85.8912 99.2799C85.964 98.7306 85.9207 98.1721 85.7642 97.6405C85.6076 97.109 85.3413 96.6162 84.9824 96.194C84.6236 95.7718 84.1801 95.4295 83.6807 95.1894C83.1813 94.9493 82.6371 94.8166 82.0832 94.7999C78.736 94.7999 75.2864 99.7471 74.3648 102.589C74.32 102.742 73.9808 104.368 73.7248 105.558C73.7248 104.854 73.6864 104.131 73.6864 103.453C73.6864 100.925 73.8528 98.6079 74.0128 96.5599C74.1088 95.3951 74.224 94.3391 74.3392 93.3599C75.312 92.7199 79.1776 89.9615 80.368 88.0095C81.5584 86.0575 82.48 83.3567 81.648 81.1615C81.4624 80.637 81.1682 80.1576 80.7847 79.7546C80.4012 79.3515 79.937 79.0339 79.4224 78.8225C78.9078 78.6111 78.3543 78.5107 77.7982 78.5277C77.2422 78.5448 76.6959 78.679 76.1952 78.9215C73.2256 80.4575 72.4384 86.4351 72.9312 89.3855C72.976 89.6415 74.096 93.5455 74.1472 93.5135C74.1683 93.5011 74.1877 93.4861 74.2048 93.4687C74.0768 94.4159 73.9488 95.4271 73.8272 96.5407C73.6224 98.5887 73.4112 100.905 73.3536 103.446C73.2608 106.183 73.3271 108.922 73.552 111.651C73.7873 114.707 74.2949 117.735 75.0688 120.701C75.0717 120.737 75.0717 120.773 75.0688 120.809C74.576 119.965 73.0272 117.699 72.88 117.52C70.96 115.261 65.84 112.048 62.7424 113.353C62.2373 113.585 61.7865 113.921 61.4195 114.338C61.0524 114.755 60.7772 115.245 60.6119 115.775C60.4465 116.306 60.3946 116.865 60.4595 117.417C60.5245 117.969 60.7048 118.501 60.9888 118.979C62.128 121.046 64.8288 122.07 67.056 122.39C69.552 122.755 74.7872 121.238 75.2032 121.11C76.0759 124.111 77.1449 127.05 78.4032 129.91C79.1264 131.574 79.9008 133.238 80.7008 134.889C80.2272 134.185 79.792 133.565 79.7216 133.488C77.7696 131.222 72.6816 128.009 69.584 129.315C69.0789 129.547 68.6281 129.882 68.2611 130.299C67.894 130.717 67.6188 131.207 67.4535 131.737C67.2881 132.268 67.2362 132.827 67.3011 133.379C67.3661 133.931 67.5464 134.463 67.8304 134.941C68.9696 137.014 71.6704 138.032 73.8976 138.358C76.1248 138.685 80.6304 137.475 81.8208 137.142C82.1344 137.782 82.4608 138.422 82.7552 139.062C84.272 142.083 85.8016 145.091 87.2352 148.086C87.728 149.142 88.1824 150.205 88.6368 151.286C88.208 150.646 87.8432 150.147 87.7856 150.07C85.8272 147.811 80.7456 144.598 77.6416 145.904C77.1365 146.136 76.6857 146.471 76.3187 146.888C75.9516 147.305 75.6764 147.795 75.5111 148.326C75.3457 148.856 75.2938 149.416 75.3587 149.968C75.4237 150.52 75.604 151.052 75.888 151.529C77.0272 153.597 79.728 154.621 81.9616 154.941C84.1952 155.261 88.2528 154.179 89.6416 153.789C90.0704 154.883 90.5056 155.984 90.8768 157.065C91.1136 157.808 91.3888 158.505 91.5872 159.267C91.7856 160.029 92.0032 160.758 92.2272 161.494C92.5728 162.928 92.9312 164.4 93.232 165.801C93.4496 166.774 93.6352 167.721 93.8272 168.643C93.3472 167.587 92.3552 165.539 92.2528 165.379C90.6656 162.851 86.1088 158.896 82.864 159.721C82.3322 159.877 81.8388 160.142 81.4158 160.5C80.9928 160.858 80.6496 161.3 80.4084 161.799C80.1671 162.298 80.0332 162.842 80.0152 163.396C79.9972 163.949 80.0956 164.501 80.304 165.014C81.1168 167.235 83.6512 168.656 85.7888 169.309C88.1376 170.032 93.3344 169.373 93.9872 169.309C94.3008 170.857 94.5888 172.374 94.8384 173.789C95.7024 178.71 96.24 182.845 96.5792 185.763H98.8448C98.8448 185.693 98.8448 185.635 98.8448 185.565C98.4416 182.621 97.8016 178.422 96.8096 173.405C96.5024 171.824 96.1376 170.147 95.7472 168.419C97.3143 167.795 98.8423 167.076 100.323 166.269C102.032 168.125 106.422 170.294 106.992 170.569C106.39 172.041 105.795 173.462 105.213 174.793C103.222 179.376 101.373 183.113 100.093 185.744H102.582C103.811 183.145 105.386 179.683 107.062 175.568C107.702 174.077 108.298 172.477 108.925 170.825C109.565 170.953 114.685 172.003 117.104 171.465C119.28 170.973 121.917 169.744 122.864 167.587C123.111 167.09 123.25 166.546 123.273 165.991C123.295 165.436 123.201 164.882 122.995 164.366C122.789 163.851 122.476 163.384 122.078 162.997C121.679 162.61 121.203 162.312 120.682 162.121C117.482 161.053 112.669 164.681 110.896 167.056C110.787 167.203 109.827 168.867 109.232 169.929C109.488 169.251 109.738 168.598 109.987 167.894C110.499 166.518 110.96 165.123 111.466 163.632L112.106 161.417C112.342 160.681 112.496 159.875 112.701 159.101C113.13 157.289 113.482 155.433 113.789 153.552C114.998 153.993 119.312 155.472 121.552 155.337C123.792 155.203 126.57 154.365 127.856 152.387C128.178 151.931 128.4 151.412 128.508 150.865C128.615 150.317 128.606 149.753 128.48 149.209C128.355 148.665 128.116 148.154 127.779 147.709C127.442 147.264 127.014 146.895 126.525 146.627C123.555 145.091 118.205 147.907 116.106 150.025C115.971 150.16 114.621 151.843 113.898 152.777C114.077 151.651 114.262 150.525 114.403 149.373C114.813 146.057 115.126 142.685 115.453 139.325C115.555 138.294 115.67 137.27 115.773 136.246C116.202 136.406 121.296 138.301 123.798 138.128C126.026 137.968 128.816 137.155 130.109 135.171C130.432 134.716 130.655 134.197 130.763 133.649C130.871 133.101 130.862 132.536 130.736 131.992C130.611 131.448 130.371 130.937 130.033 130.492C129.696 130.047 129.268 129.679 128.778 129.411C125.802 127.875 120.458 130.691 118.358 132.809C118.198 132.969 116.259 135.369 115.798 136.009C116.042 133.744 116.298 131.529 116.643 129.289C117.092 126.305 117.733 123.353 118.563 120.451C118.762 120.528 124.067 122.531 126.627 122.371C128.854 122.217 131.645 121.398 132.938 119.421C133.26 118.965 133.482 118.446 133.589 117.898C133.697 117.351 133.688 116.786 133.562 116.243C133.436 115.699 133.197 115.188 132.86 114.743C132.523 114.298 132.096 113.929 131.606 113.661C128.63 112.125 123.286 114.941 121.187 117.059C121.046 117.2 119.568 119.043 118.883 119.939L118.717 119.849C119.614 116.973 120.767 114.182 122.16 111.51C122.922 110.025 123.734 108.643 124.554 107.318C125.501 107.792 129.866 109.878 132.189 110.006C134.512 110.134 137.309 109.584 138.787 107.76C139.154 107.343 139.428 106.853 139.593 106.322C139.758 105.792 139.81 105.233 139.745 104.681C139.679 104.13 139.499 103.598 139.215 103.12C138.931 102.643 138.55 102.231 138.096 101.91C135.306 100.061 129.699 102.281 127.363 104.144C127.235 104.246 126.083 105.424 125.213 106.288C125.59 105.693 125.968 105.072 126.346 104.515C127.741 102.403 129.155 100.56 130.416 98.9407C131.146 98.0255 131.818 97.2063 132.458 96.4511C133.629 96.4511 138.365 96.2847 140.438 95.3183C142.512 94.3519 144.765 92.5983 145.251 90.2879C145.385 89.7497 145.404 89.1895 145.307 88.6435C145.211 88.0975 145.001 87.5779 144.691 87.1182C144.38 86.6585 143.977 86.2691 143.507 85.975C143.037 85.6809 142.511 85.4888 141.962 85.4111Z" fill="#0ABAB5"/>
<path d="M349.36 339.267C346.922 338.314 341.04 338.672 341.04 338.672C341.04 338.672 342.448 342.461 342.57 342.691C343.958 345.334 348.202 349.629 351.498 349.053C352.042 348.941 352.557 348.717 353.009 348.394C353.462 348.071 353.841 347.656 354.123 347.177C354.404 346.698 354.582 346.165 354.645 345.613C354.708 345.06 354.654 344.501 354.486 343.971C353.84 341.699 351.427 340.086 349.36 339.267Z" fill="#0ABAB5"/>
<path d="M289.949 340.24C289.891 340.208 289.027 344.176 289.002 344.438C288.701 347.408 289.872 353.328 292.938 354.678C293.451 354.888 294.002 354.987 294.557 354.969C295.111 354.952 295.655 354.818 296.154 354.577C296.653 354.335 297.096 353.992 297.454 353.568C297.811 353.145 298.076 352.651 298.23 352.118C298.954 349.866 297.827 347.184 296.541 345.36C295.037 343.184 289.949 340.24 289.949 340.24Z" fill="#0ABAB5"/>
<path d="M273.245 362.179C276.579 362.409 280.355 357.699 281.469 354.928C281.565 354.691 282.634 350.768 282.57 350.768H282.499C283.101 350.032 283.741 349.232 284.419 348.342C285.654 346.697 287.043 344.829 288.413 342.685C289.916 340.397 291.284 338.022 292.509 335.574C293.892 332.839 295.029 329.986 295.907 327.049C295.911 327.013 295.911 326.977 295.907 326.941C295.907 327.926 296.08 330.659 296.112 330.87C296.611 333.814 299.312 339.19 302.614 339.696C303.166 339.762 303.725 339.71 304.256 339.545C304.786 339.38 305.276 339.105 305.692 338.737C306.109 338.37 306.444 337.919 306.674 337.414C306.905 336.908 307.026 336.36 307.03 335.805C307.139 333.443 305.341 331.152 303.619 329.731C301.699 328.131 296.413 326.704 295.997 326.595C296.815 323.584 297.432 320.523 297.846 317.43C298.096 315.625 298.294 313.808 298.486 311.977C298.531 312.822 298.582 313.577 298.595 313.686C299.094 316.63 301.795 322.006 305.098 322.512C305.649 322.578 306.208 322.526 306.739 322.361C307.269 322.196 307.759 321.921 308.176 321.553C308.592 321.186 308.927 320.735 309.157 320.23C309.388 319.724 309.509 319.176 309.514 318.621C309.622 316.259 307.824 313.968 306.102 312.547C304.381 311.126 299.894 309.801 298.704 309.475C298.768 308.771 298.832 308.067 298.89 307.369C299.165 303.997 299.421 300.63 299.773 297.341C299.901 296.182 300.061 295.043 300.227 293.904C300.266 294.653 300.304 295.286 300.323 295.382C300.816 298.326 303.523 303.702 306.819 304.214C307.371 304.279 307.931 304.227 308.462 304.061C308.993 303.895 309.482 303.619 309.9 303.252C310.317 302.884 310.652 302.433 310.883 301.927C311.114 301.421 311.236 300.873 311.242 300.317C311.344 297.955 309.546 295.67 307.83 294.243C306.115 292.816 302.07 291.625 300.643 291.229C300.842 290.07 301.04 288.905 301.283 287.785C301.469 287.03 301.59 286.288 301.821 285.533C302.051 284.777 302.237 284.041 302.461 283.312C302.909 281.91 303.363 280.464 303.837 279.107C304.157 278.166 304.477 277.27 304.803 276.368C304.669 277.52 304.445 279.785 304.451 279.977C304.589 282.601 305.395 285.145 306.794 287.369C306.798 287.664 306.828 287.957 306.883 288.246C306.969 288.797 307.171 289.324 307.476 289.792C307.78 290.26 308.18 290.658 308.649 290.96C309.118 291.262 309.645 291.462 310.197 291.546C310.749 291.629 311.312 291.596 311.85 291.446C315.05 290.467 316.88 284.713 316.918 281.731C316.918 281.552 316.733 279.638 316.592 278.429C316.784 279.126 316.957 279.805 317.162 280.521C317.558 281.936 317.994 283.337 318.442 284.848C318.691 285.571 318.941 286.294 319.19 287.03C319.44 287.766 319.773 288.515 320.061 289.264C320.765 290.985 321.565 292.694 322.41 294.384C321.168 294.729 316.784 296.029 315.062 297.462C313.341 298.896 311.555 301.174 311.658 303.536C311.664 304.091 311.788 304.639 312.021 305.144C312.253 305.648 312.589 306.099 313.006 306.465C313.424 306.831 313.914 307.106 314.445 307.27C314.975 307.435 315.535 307.486 316.086 307.421C319.395 306.934 322.077 301.533 322.57 298.582C322.57 298.403 322.717 296.246 322.755 295.062C323.274 296.086 323.779 297.104 324.336 298.121C325.936 301.059 327.645 303.977 329.341 306.902C329.859 307.792 330.365 308.694 330.877 309.59C330.435 309.705 325.187 311.139 323.261 312.739C321.539 314.166 319.747 316.457 319.856 318.819C319.862 319.375 319.985 319.923 320.217 320.428C320.449 320.933 320.785 321.384 321.203 321.75C321.621 322.117 322.111 322.391 322.642 322.556C323.173 322.72 323.733 322.77 324.285 322.704C327.594 322.217 330.275 316.809 330.768 313.865C330.806 313.641 330.966 310.544 330.966 309.75C332.093 311.728 333.194 313.705 334.198 315.702C335.575 318.393 336.773 321.173 337.782 324.022C337.578 324.08 332.099 325.545 330.102 327.184C328.387 328.611 326.595 330.902 326.704 333.264C326.71 333.819 326.833 334.367 327.064 334.871C327.296 335.376 327.631 335.826 328.049 336.193C328.466 336.559 328.955 336.834 329.486 336.998C330.016 337.163 330.575 337.214 331.126 337.149C334.442 336.662 337.123 331.254 337.61 328.31C337.642 328.118 337.77 325.75 337.802 324.63H337.994C338.936 327.518 339.619 330.485 340.035 333.494C340.285 335.145 340.432 336.739 340.534 338.294C339.491 338.461 334.704 339.286 332.765 340.566C330.826 341.846 328.867 343.875 328.714 346.23C328.659 346.783 328.721 347.342 328.896 347.869C329.071 348.397 329.356 348.882 329.731 349.292C330.105 349.703 330.562 350.03 331.072 350.252C331.582 350.474 332.132 350.587 332.688 350.582C336.029 350.461 339.293 345.385 340.106 342.505C340.144 342.352 340.419 340.713 340.605 339.517C340.637 340.221 340.694 340.944 340.714 341.616C340.81 344.144 340.714 346.467 340.656 348.521C340.598 349.686 340.528 350.742 340.451 351.721C339.504 352.425 335.741 355.305 334.627 357.296C333.514 359.286 332.707 362.032 333.648 364.195C333.855 364.711 334.167 365.177 334.566 365.564C334.964 365.951 335.439 366.25 335.961 366.441C336.482 366.632 337.038 366.712 337.592 366.674C338.147 366.637 338.687 366.483 339.178 366.224C342.09 364.573 342.64 358.544 342.038 355.638C341.987 355.389 340.714 351.523 340.669 351.561C340.648 351.574 340.628 351.589 340.611 351.606C340.707 350.659 340.797 349.641 340.874 348.528C340.995 346.467 341.117 344.144 341.078 341.603C341.071 338.865 340.902 336.129 340.573 333.411C340.216 330.375 339.593 327.377 338.71 324.451L338.672 324.349C339.229 325.155 340.861 327.357 341.008 327.51C343.05 329.693 348.272 332.713 351.299 331.286C351.795 331.036 352.232 330.684 352.583 330.254C352.934 329.823 353.19 329.323 353.335 328.787C353.48 328.251 353.51 327.691 353.424 327.142C353.338 326.593 353.137 326.069 352.835 325.603C351.619 323.574 348.861 322.659 346.64 322.403C344.138 322.134 338.96 323.849 338.55 323.99C337.585 321.012 336.422 318.102 335.069 315.28C334.288 313.635 333.443 312.009 332.579 310.39C333.085 311.069 333.539 311.67 333.616 311.753C335.658 313.936 340.88 316.957 343.907 315.529C344.403 315.279 344.84 314.927 345.191 314.497C345.542 314.066 345.798 313.567 345.943 313.03C346.088 312.494 346.118 311.934 346.032 311.385C345.946 310.836 345.745 310.312 345.443 309.846C344.227 307.817 341.469 306.902 339.248 306.646C337.027 306.39 332.554 307.779 331.382 308.157C331.043 307.517 330.742 306.921 330.371 306.301C328.739 303.344 327.101 300.393 325.578 297.449C325.04 296.413 324.554 295.376 324.061 294.339C324.509 294.941 324.893 295.446 324.957 295.517C326.998 297.699 332.221 300.72 335.248 299.299C335.744 299.048 336.182 298.696 336.532 298.264C336.883 297.833 337.139 297.333 337.284 296.797C337.429 296.26 337.459 295.699 337.373 295.15C337.287 294.601 337.086 294.076 336.784 293.609C335.568 291.581 332.81 290.665 330.589 290.409C328.368 290.153 324.33 291.414 322.909 291.856C322.435 290.781 321.955 289.699 321.546 288.656C321.283 287.92 320.976 287.229 320.752 286.48L320.048 284.278C319.651 282.864 319.229 281.405 318.877 280.016C318.627 279.049 318.403 278.096 318.179 277.193C318.698 278.23 319.76 280.24 319.869 280.393C321.558 282.857 326.269 286.633 329.469 285.686C329.997 285.513 330.483 285.231 330.894 284.858C331.306 284.486 331.635 284.03 331.86 283.522C332.084 283.014 332.199 282.464 332.198 281.909C332.196 281.353 332.077 280.804 331.85 280.297C330.96 278.115 328.368 276.784 326.211 276.214C323.837 275.574 318.666 276.445 318.019 276.553C317.648 275.011 317.302 273.507 316.995 272.073C315.946 267.19 315.248 263.075 314.8 260.176L312.534 260.265C312.534 260.329 312.534 260.387 312.566 260.457C313.085 263.382 313.878 267.555 315.062 272.509C315.434 274.077 315.862 275.747 316.342 277.449C314.806 278.138 313.31 278.914 311.862 279.773C310.083 277.987 305.616 275.984 305.04 275.734C305.578 274.243 306.122 272.797 306.653 271.446C308.464 266.787 310.154 262.973 311.376 260.31L308.893 260.406C307.76 263.043 306.333 266.563 304.797 270.742C304.24 272.253 303.677 273.878 303.114 275.555C302.474 275.446 297.296 274.595 294.915 275.229C292.765 275.805 290.173 277.149 289.283 279.325C289.056 279.832 288.938 280.381 288.937 280.937C288.936 281.493 289.052 282.042 289.278 282.55C289.504 283.058 289.834 283.513 290.248 283.884C290.661 284.256 291.148 284.536 291.677 284.707C294.877 285.648 299.587 281.865 301.277 279.395C301.379 279.254 302.275 277.552 302.826 276.47C302.602 277.155 302.371 277.814 302.147 278.525C301.693 279.92 301.283 281.334 300.835 282.845C300.643 283.581 300.451 284.329 300.259 285.085C300.067 285.84 299.926 286.64 299.754 287.421C299.389 289.245 299.114 291.113 298.877 293.001C297.648 292.611 293.277 291.273 291.05 291.517C288.822 291.76 286.07 292.681 284.861 294.717C284.56 295.184 284.361 295.709 284.276 296.258C284.191 296.807 284.223 297.367 284.369 297.903C284.515 298.439 284.772 298.938 285.124 299.368C285.475 299.799 285.913 300.15 286.41 300.4C289.437 301.821 294.659 298.787 296.694 296.605C296.822 296.464 298.102 294.736 298.794 293.769C298.659 294.902 298.518 296.035 298.416 297.193C298.134 300.521 297.949 303.901 297.776 307.273C297.718 308.304 297.642 309.334 297.571 310.365C297.142 310.217 291.978 308.515 289.482 308.79C287.267 309.027 284.509 309.955 283.293 311.99C282.992 312.457 282.793 312.982 282.708 313.531C282.623 314.08 282.655 314.641 282.801 315.177C282.947 315.713 283.204 316.212 283.556 316.642C283.907 317.072 284.345 317.424 284.842 317.673C287.869 319.088 293.091 316.061 295.126 313.878C295.28 313.712 297.123 311.216 297.565 310.557C297.411 312.822 297.238 315.081 296.976 317.302C296.637 320.301 296.104 323.274 295.382 326.205C295.184 326.134 289.808 324.336 287.248 324.617C285.034 324.854 282.269 325.782 281.059 327.817C280.758 328.285 280.559 328.81 280.474 329.36C280.39 329.909 280.421 330.47 280.567 331.007C280.713 331.543 280.97 332.043 281.322 332.474C281.674 332.904 282.112 333.256 282.608 333.507C285.635 334.921 290.858 331.894 292.893 329.705C293.027 329.565 294.429 327.664 295.082 326.742L295.254 326.825C294.444 329.755 293.373 332.605 292.054 335.344C291.35 336.861 290.595 338.269 289.827 339.625C288.861 339.19 284.413 337.238 282.09 337.232C279.766 337.225 277.014 337.872 275.587 339.728C275.235 340.158 274.978 340.658 274.833 341.194C274.687 341.731 274.657 342.292 274.743 342.841C274.829 343.391 275.031 343.915 275.334 344.381C275.637 344.847 276.035 345.244 276.502 345.545C279.357 347.286 284.874 344.854 287.139 342.902C287.261 342.793 288.419 341.577 289.206 340.681C288.848 341.289 288.496 341.923 288.138 342.499C286.858 344.656 285.482 346.55 284.298 348.221C283.606 349.168 282.96 350.006 282.378 350.781C281.206 350.845 276.477 351.171 274.448 352.221C272.419 353.27 270.224 355.101 269.827 357.424C269.713 357.963 269.713 358.52 269.826 359.059C269.94 359.599 270.164 360.108 270.486 360.556C270.808 361.004 271.219 361.379 271.694 361.658C272.169 361.938 272.697 362.115 273.245 362.179Z" fill="#0ABAB5"/>
<g opacity="0.2">
<path opacity="0.2" d="M281.475 81.5457C281.475 81.5457 281.136 81.5457 280.522 81.5457" stroke="black" stroke-linecap="round" stroke-linejoin="round"/>
<path opacity="0.2" d="M278.602 81.5969C271.606 81.9873 253.475 84.6881 242.486 101.674C230.166 120.72 237.808 153.757 236.995 175.12C235.939 202.826 229.853 234.519 205.219 251.139C177.731 269.699 141.29 265.815 111.056 277.149C70.8064 292.24 64.5152 331.837 77.7248 351.959C101.283 387.863 152.643 364.119 173.866 339.568C183.126 328.848 190.55 315.376 201.488 306.288C210.896 298.474 223.107 294.915 234.941 292.848C265.181 287.536 297.45 282.173 324.81 267.504C353.155 252.311 359.638 219.229 347.632 190.967C335.709 162.915 307.952 144.247 278.96 137.52C214.998 122.64 195.184 144.503 162.602 106.295" stroke="black" stroke-linecap="round" stroke-linejoin="round" stroke-dasharray="3 3"/>
<path opacity="0.2" d="M161.981 105.552L161.341 104.816" stroke="black" stroke-linecap="round" stroke-linejoin="round"/>
</g>
<path opacity="0.2" d="M124.534 339.875C124.522 338.969 124.207 338.093 123.64 337.386C123.073 336.679 122.287 336.181 121.405 335.971C120.523 335.762 119.597 335.853 118.772 336.23C117.948 336.606 117.273 337.247 116.854 338.051C116.436 337.247 115.761 336.606 114.936 336.23C114.112 335.853 113.186 335.762 112.304 335.971C111.422 336.181 110.635 336.679 110.069 337.386C109.502 338.093 109.187 338.969 109.174 339.875C109.174 341.955 110.762 344.074 112.336 345.302C113.773 346.373 115.269 347.362 116.816 348.266C118.365 347.365 119.861 346.375 121.296 345.302C122.8 344.138 124.534 341.859 124.534 339.875Z" stroke="black" stroke-linecap="round" stroke-linejoin="round"/>
<path opacity="0.2" d="M107.082 351.645C107.08 350.443 106.673 349.276 105.927 348.334C105.18 347.391 104.138 346.728 102.968 346.451C101.798 346.175 100.569 346.3 99.4793 346.808C98.3898 347.317 97.5033 348.177 96.9632 349.251C96.4232 348.177 95.5367 347.317 94.4472 346.808C93.3576 346.3 92.1285 346.175 90.9586 346.451C89.7887 346.728 88.7463 347.391 87.9998 348.334C87.2534 349.276 86.8464 350.443 86.8448 351.645C86.8448 354.378 88.9249 357.149 90.9921 358.768C92.0289 359.581 96.752 362.742 96.8992 362.653C97.0336 362.742 101.763 359.581 102.8 358.768C104.758 357.232 107.082 354.25 107.082 351.645Z" stroke="black" stroke-linecap="round" stroke-linejoin="round"/>
<path opacity="0.2" d="M257.379 356.675C257.375 355.473 256.965 354.308 256.216 353.367C255.467 352.427 254.422 351.767 253.252 351.495C252.081 351.222 250.852 351.353 249.765 351.866C248.678 352.379 247.795 353.243 247.261 354.32C246.725 353.241 245.84 352.375 244.749 351.862C243.659 351.35 242.427 351.222 241.254 351.499C240.082 351.775 239.037 352.441 238.29 353.386C237.544 354.332 237.139 355.502 237.142 356.707C237.142 359.44 239.229 362.211 241.296 363.83C242.333 364.643 247.056 367.805 247.197 367.715C247.338 367.805 252.061 364.643 253.098 363.83C255.062 362.262 257.379 359.28 257.379 356.675Z" stroke="black" stroke-linecap="round" stroke-linejoin="round"/>
<path opacity="0.2" d="M327.69 90.8065C327.691 89.9951 327.419 89.2069 326.916 88.5699C326.414 87.933 325.711 87.4847 324.921 87.2978C324.131 87.111 323.302 87.1966 322.567 87.5408C321.832 87.885 321.235 88.4675 320.874 89.1937C320.51 88.471 319.913 87.8921 319.18 87.5504C318.446 87.2088 317.619 87.1243 316.832 87.3108C316.045 87.4973 315.343 87.9437 314.841 88.578C314.339 89.2123 314.065 89.9974 314.064 90.8065C314.064 92.6433 315.466 94.5121 316.861 95.6001C318.136 96.5431 319.46 97.4169 320.829 98.2177C322.201 97.4187 323.527 96.5449 324.803 95.6001C326.122 94.5633 327.69 92.5601 327.69 90.8065Z" stroke="black" stroke-linecap="round" stroke-linejoin="round"/>
<path opacity="0.2" d="M78 341.098C78.0052 340.285 77.7348 339.495 77.233 338.856C76.7312 338.218 76.0276 337.768 75.2371 337.581C74.4467 337.394 73.6161 337.48 72.8811 337.826C72.1461 338.172 71.5501 338.756 71.1904 339.485C70.8285 338.759 70.2317 338.176 69.4969 337.832C68.7621 337.488 67.9326 337.402 67.143 337.589C66.3534 337.776 65.6502 338.224 65.1476 338.861C64.645 339.498 64.3725 340.286 64.3744 341.098C64.3744 342.934 65.7824 344.797 67.1712 345.891C68.4452 346.837 69.7722 347.708 71.1456 348.502C72.519 347.708 73.846 346.837 75.12 345.891C76.464 344.854 78 342.845 78 341.098Z" stroke="black" stroke-linecap="round" stroke-linejoin="round"/>
<path opacity="0.2" d="M234.051 348.426C234.053 347.614 233.781 346.826 233.278 346.189C232.775 345.552 232.072 345.104 231.283 344.917C230.493 344.73 229.663 344.816 228.929 345.16C228.194 345.504 227.597 346.087 227.235 346.813C226.871 346.09 226.275 345.511 225.541 345.17C224.808 344.828 223.981 344.743 223.193 344.93C222.406 345.116 221.705 345.563 221.202 346.197C220.7 346.831 220.426 347.617 220.426 348.426C220.426 350.262 221.827 352.131 223.222 353.219C224.497 354.162 225.822 355.036 227.19 355.837C228.562 355.038 229.889 354.164 231.165 353.219C232.49 352.189 234.051 350.179 234.051 348.426Z" stroke="black" stroke-linecap="round" stroke-linejoin="round"/>
<path opacity="0.2" d="M212.298 94.1281C212.303 93.3158 212.032 92.5258 211.531 91.887C211.029 91.2482 210.325 90.7985 209.535 90.6113C208.744 90.4241 207.914 90.5105 207.179 90.8563C206.444 91.2021 205.848 91.787 205.488 92.5153C205.128 91.787 204.532 91.2021 203.797 90.8563C203.062 90.5105 202.232 90.4241 201.441 90.6113C200.651 90.7985 199.947 91.2482 199.445 91.887C198.944 92.5258 198.673 93.3158 198.678 94.1281C198.678 95.9649 200.08 97.8273 201.469 98.9217C202.747 99.8575 204.073 100.725 205.443 101.52C206.815 100.724 208.142 99.852 209.418 98.9089C210.736 97.8849 212.298 95.8753 212.298 94.1281Z" stroke="black" stroke-linecap="round" stroke-linejoin="round"/>
<path opacity="0.2" d="M167.325 92.0609C167.329 91.2491 167.057 90.4601 166.555 89.8224C166.052 89.1848 165.349 88.7362 164.559 88.5498C163.769 88.3634 162.939 88.4503 162.204 88.7962C161.47 89.1421 160.875 89.7266 160.515 90.4545C160.154 89.7287 159.557 89.1465 158.823 88.8022C158.089 88.458 157.26 88.3718 156.471 88.5579C155.682 88.7439 154.978 89.1911 154.475 89.8269C153.972 90.4628 153.699 91.25 153.699 92.0609C153.699 93.8977 155.107 95.7665 156.496 96.8545C157.77 97.8014 159.097 98.6754 160.47 99.4721C161.844 98.6754 163.171 97.8014 164.445 96.8545C165.763 95.8241 167.325 93.8401 167.325 92.0609Z" stroke="black" stroke-linecap="round" stroke-linejoin="round"/>
<path opacity="0.2" d="M306.525 78.8896C306.528 77.6234 306.102 76.3934 305.318 75.3995C304.533 74.4056 303.436 73.7062 302.204 73.4148C300.971 73.1234 299.677 73.2573 298.53 73.7945C297.384 74.3318 296.453 75.241 295.888 76.3744C295.323 75.241 294.392 74.3318 293.246 73.7945C292.099 73.2573 290.805 73.1234 289.572 73.4148C288.34 73.7062 287.243 74.4056 286.458 75.3995C285.674 76.3934 285.248 77.6234 285.251 78.8896C285.251 81.7568 287.44 84.6496 289.616 86.3776C290.704 87.2288 295.67 90.5504 295.818 90.4608C295.965 90.5504 300.938 87.2608 302.026 86.3776C304.086 84.7648 306.525 81.6288 306.525 78.8896Z" stroke="black" stroke-linecap="round" stroke-linejoin="round"/>
<path d="M327.555 330.998L231.888 333.776C229.425 333.846 227.035 332.936 225.243 331.245C223.452 329.554 222.405 327.221 222.333 324.758L216.394 120.387C216.358 119.167 216.563 117.952 216.996 116.811C217.43 115.671 218.084 114.626 218.922 113.738C219.759 112.851 220.763 112.136 221.877 111.637C222.99 111.137 224.191 110.861 225.411 110.825L321.078 108.048C322.299 108.011 323.514 108.215 324.655 108.649C325.796 109.082 326.841 109.737 327.729 110.574C328.617 111.412 329.331 112.416 329.831 113.53C330.33 114.644 330.605 115.845 330.64 117.065L336.56 321.437C336.631 323.898 335.722 326.287 334.034 328.079C332.346 329.872 330.016 330.921 327.555 330.998Z" fill="#263238" stroke="#263238" stroke-linecap="round" stroke-linejoin="round"/>
<path d="M323.12 330.998L227.466 333.776C226.246 333.812 225.031 333.607 223.89 333.173C222.749 332.739 221.705 332.085 220.817 331.248C219.929 330.41 219.215 329.406 218.715 328.293C218.215 327.179 217.94 325.978 217.904 324.758L211.965 120.387C211.894 117.923 212.805 115.531 214.497 113.738C216.189 111.945 218.524 110.897 220.989 110.826L316.656 108.048C317.876 108.012 319.09 108.217 320.231 108.651C321.371 109.085 322.415 109.739 323.302 110.577C324.19 111.414 324.903 112.418 325.402 113.532C325.902 114.645 326.176 115.846 326.211 117.066L332.15 321.437C332.187 322.658 331.982 323.874 331.548 325.016C331.114 326.158 330.458 327.203 329.619 328.092C328.781 328.98 327.775 329.694 326.659 330.193C325.544 330.691 324.341 330.965 323.12 330.998Z" fill="white" stroke="#263238" stroke-miterlimit="10"/>
<path d="M278.557 325.034C278.534 324.266 278.283 323.522 277.838 322.896C277.392 322.271 276.771 321.791 276.053 321.519C275.334 321.246 274.551 321.192 273.803 321.365C273.054 321.537 272.373 321.927 271.847 322.486C271.32 323.045 270.97 323.748 270.843 324.505C270.715 325.263 270.815 326.041 271.13 326.742C271.445 327.443 271.96 328.034 272.611 328.442C273.262 328.85 274.019 329.056 274.787 329.034C275.297 329.019 275.8 328.903 276.265 328.694C276.731 328.485 277.151 328.186 277.501 327.815C277.851 327.443 278.124 327.006 278.306 326.529C278.487 326.052 278.572 325.544 278.557 325.034V325.034Z" stroke="white" stroke-linecap="round" stroke-linejoin="round"/>
<path d="M321.295 123.086L217.211 126.102L222.85 320.683L326.935 317.666L321.295 123.086Z" fill="#919191" stroke="#263238" stroke-linecap="round" stroke-linejoin="round"/>
<path d="M317.813 125.206L309.183 125.456L309.321 130.19L317.951 129.94L317.813 125.206Z" stroke="#263238" stroke-width="0.821067" stroke-linecap="round" stroke-linejoin="round"/>
<path d="M315.914 125.261L309.184 125.456L309.321 130.19L316.051 129.995L315.914 125.261Z" fill="#263238" stroke="#263238" stroke-width="0.725073" stroke-linecap="round" stroke-linejoin="round"/>
<path d="M319.05 126.496L317.835 126.531L317.895 128.616L319.111 128.581L319.05 126.496Z" fill="#263238" stroke="#263238" stroke-width="0.725073" stroke-linecap="round" stroke-linejoin="round"/>
<path d="M221.239 129.468L219.659 129.514L219.737 132.226L221.317 132.181L221.239 129.468Z" fill="#263238" stroke="#263238" stroke-width="0.883086" stroke-linecap="round" stroke-linejoin="round"/>
<path d="M223.703 128.425L222.122 128.471L222.229 132.137L223.809 132.091L223.703 128.425Z" fill="#263238" stroke="#263238" stroke-width="0.883086" stroke-linecap="round" stroke-linejoin="round"/>
<path d="M226.156 127.227L224.576 127.273L224.716 132.065L226.296 132.019L226.156 127.227Z" fill="#263238" stroke="#263238" stroke-width="0.883086" stroke-linecap="round" stroke-linejoin="round"/>
<path d="M182.826 334.992L87.2673 329.661C86.0485 329.593 84.8551 329.286 83.7551 328.757C82.6552 328.227 81.6702 327.487 80.8566 326.577C80.043 325.667 79.4166 324.606 79.0132 323.453C78.6098 322.301 78.4373 321.081 78.5056 319.862L89.8976 115.702C90.0396 113.246 91.1503 110.946 92.986 109.307C94.8217 107.668 97.2325 106.824 99.6896 106.96L195.254 112.291C197.715 112.43 200.02 113.54 201.663 115.377C203.306 117.214 204.152 119.629 204.016 122.09L192.624 326.25C192.48 328.707 191.368 331.007 189.532 332.646C187.695 334.285 185.283 335.128 182.826 334.992Z" fill="#263238" stroke="#263238" stroke-linecap="round" stroke-linejoin="round"/>
<path d="M186.083 334.992L90.5248 329.661C89.3061 329.593 88.1126 329.286 87.0127 328.756C85.9127 328.227 84.9278 327.486 84.1142 326.577C83.3006 325.667 82.6742 324.605 82.2708 323.453C81.8674 322.301 81.6949 321.081 81.7632 319.862L93.1552 115.702C93.2988 113.244 94.4117 110.943 96.2499 109.304C98.088 107.665 100.501 106.822 102.96 106.96L198.512 112.291C200.974 112.428 203.281 113.537 204.925 115.375C206.569 117.212 207.416 119.628 207.28 122.09L195.888 326.25C195.746 328.709 194.634 331.011 192.795 332.65C190.957 334.289 188.542 335.132 186.083 334.992Z" fill="white" stroke="#263238" stroke-miterlimit="10"/>
<path d="M142.173 325.277C142.216 324.51 142.031 323.747 141.64 323.085C141.25 322.423 140.672 321.892 139.98 321.559C139.287 321.225 138.512 321.105 137.751 321.212C136.99 321.32 136.278 321.65 135.705 322.162C135.133 322.674 134.724 323.345 134.532 324.089C134.341 324.833 134.374 325.617 134.628 326.342C134.881 327.068 135.345 327.701 135.959 328.163C136.573 328.625 137.31 328.895 138.077 328.938C139.105 328.995 140.115 328.642 140.883 327.955C141.651 327.269 142.115 326.305 142.173 325.277V325.277Z" stroke="white" stroke-linecap="round" stroke-linejoin="round"/>
<path d="M201.875 127.643L97.9086 121.848L87.0761 316.209L191.043 322.004L201.875 127.643Z" fill="#919191" stroke="#263238" stroke-linecap="round" stroke-linejoin="round"/>
<path d="M198.23 129.457L189.609 128.977L189.346 133.705L197.966 134.186L198.23 129.457Z" stroke="#263238" stroke-width="0.821067" stroke-linecap="round" stroke-linejoin="round"/>
<path d="M196.328 129.358L189.606 128.983L189.342 133.712L196.065 134.087L196.328 129.358Z" fill="#263238" stroke="#263238" stroke-width="0.725073" stroke-linecap="round" stroke-linejoin="round"/>
<path d="M199.348 130.852L198.134 130.785L198.018 132.868L199.232 132.936L199.348 130.852Z" fill="#263238" stroke="#263238" stroke-width="0.725073" stroke-linecap="round" stroke-linejoin="round"/>
<path d="M101.633 125.55L100.054 125.462L99.9032 128.171L101.482 128.259L101.633 125.55Z" fill="#263238" stroke="#263238" stroke-width="0.883086" stroke-linecap="round" stroke-linejoin="round"/>
<path d="M104.164 124.737L102.585 124.649L102.381 128.311L103.959 128.399L104.164 124.737Z" fill="#263238" stroke="#263238" stroke-width="0.883086" stroke-linecap="round" stroke-linejoin="round"/>
<path d="M106.705 123.756L105.127 123.667L104.859 128.454L106.438 128.542L106.705 123.756Z" fill="#263238" stroke="#263238" stroke-width="0.883086" stroke-linecap="round" stroke-linejoin="round"/>
<path d="M290.122 173.354C290.122 173.354 295.651 180.24 296.682 186.64C297.712 193.04 293.174 196.278 291.562 198.71C290.05 201.003 289.115 203.627 288.835 206.358C288.624 208.752 292.003 209.072 292.003 209.072C292.003 209.072 289.68 211.242 284.106 212.387C278.531 213.533 275.318 209.136 275.318 209.136C275.318 209.136 280.931 204.656 282.09 200.944C283.248 197.232 283.651 187.018 283.299 184.643C282.947 182.269 281.891 179.638 281.872 178.934C281.853 178.23 283.44 171.165 290.122 173.354Z" fill="#263238" stroke="#263238" stroke-linecap="round" stroke-linejoin="round"/>
<path d="M303.85 318.787C303.159 313.597 300.906 298.947 300.906 298.947C300.906 298.947 284.061 292.08 266.864 293.187C249.667 294.294 246.32 297.802 246.32 297.802L243.299 320.342H249.699L303.85 318.787Z" fill="#263238" stroke="#263238" stroke-linecap="round" stroke-linejoin="round"/>
<path d="M291.536 262.999L290.819 258.179L307.894 258.653C307.894 258.653 294.115 238.538 292.784 232.573C291.453 226.608 286.992 219.773 282.627 216.221C278.262 212.669 271.299 212.682 271.299 212.682L267.632 212.983L268.637 207.53L256.733 197.623L256.406 199.76C256.406 199.76 255.037 205.994 254.365 209.495C253.693 212.995 252.374 214.199 252.374 214.199C252.374 214.199 245.213 207.44 240.733 206.602C236.253 205.763 230.352 209.034 229.533 214.09C228.714 219.146 232.733 262.039 233.181 265.123C233.629 268.208 239.408 280.97 240.49 284.81C241.571 288.65 246.32 298.768 246.32 298.768C246.32 298.768 255.638 306.243 271.338 307.139C287.037 308.035 301.898 299.671 301.898 299.671C301.898 299.671 296.778 283.171 295.446 277.405C294.115 271.639 291.536 262.999 291.536 262.999ZM250.576 279.095C250.576 279.095 247.926 267.754 247.427 264.087C246.928 260.419 246.051 250.007 246.051 250.007L253.667 265.655L250.576 279.095Z" fill="#0ABAB5" stroke="#263238" stroke-linecap="round" stroke-linejoin="round"/>
<path d="M241.655 238.474L240.643 235.831" stroke="#263238" stroke-linecap="round" stroke-linejoin="round"/>
<path d="M246.058 250L243.184 242.467" stroke="#263238" stroke-linecap="round" stroke-linejoin="round"/>
<path d="M287.862 261.949C287.862 261.949 283.523 272.522 277.943 280.432" stroke="#263238" stroke-linecap="round" stroke-linejoin="round"/>
<path d="M270.711 295.44C270.179 295.984 269.648 296.496 269.136 296.957" stroke="#263238" stroke-linecap="round" stroke-linejoin="round"/>
<path d="M285.526 274.787C285.526 274.787 279.05 285.853 272.726 293.207" stroke="#263238" stroke-linecap="round" stroke-linejoin="round"/>
<path d="M271.28 212.682L267.613 212.983L268.618 207.53L256.714 197.623L256.387 199.76C256.387 199.76 255.018 205.994 254.346 209.495C253.674 212.995 252.355 214.199 252.355 214.199C250.095 212.102 247.659 210.205 245.072 208.528C246.051 211.728 249.802 222.736 256.01 226.672C263.306 231.299 271.126 227.395 272.726 222.512C273.656 219.406 274.236 216.205 274.454 212.97C273.404 212.8 272.344 212.704 271.28 212.682Z" fill="white" stroke="#263238" stroke-linecap="round" stroke-linejoin="round"/>
<path d="M266.461 212.381L266.141 217.251L269.949 212.97L266.461 212.381Z" fill="#263238" stroke="#263238" stroke-linecap="round" stroke-linejoin="round"/>
<path d="M282.326 232.49C282.326 232.49 283.267 224.912 283.184 222.013C283.101 219.114 281.354 212.195 280.522 210.282C279.69 208.368 275.344 205.207 275.005 206.96C274.666 208.714 275.382 213.36 275.414 214.301C275.446 215.242 274.979 219.351 274.979 219.351C274.979 219.351 275.062 215.671 273.469 214.167C271.875 212.663 270.73 213.085 270.762 214.051V215.018C270.762 215.018 272.592 218.064 272.682 220.579C272.771 223.095 272.515 228.131 272.56 229.68C272.605 231.229 275.626 235.203 276.234 236.151C276.842 237.098 282.461 243.907 282.461 243.907L287.754 239.498L282.326 232.49Z" fill="white" stroke="#263238" stroke-linecap="round" stroke-linejoin="round"/>
<path d="M282.512 218.743C282.512 218.743 279.197 211.293 277.859 211.907C276.522 212.522 279.779 218.819 279.779 218.819L280.419 220.355C280.419 220.355 277.859 225.475 277.514 227.018C277.168 228.56 277.213 229.93 277.616 230.499" fill="white"/>
<path d="M282.512 218.743C282.512 218.743 279.197 211.293 277.859 211.907C276.522 212.522 279.779 218.819 279.779 218.819L280.419 220.355C280.419 220.355 277.859 225.475 277.514 227.018C277.168 228.56 277.213 229.93 277.616 230.499" stroke="#263238" stroke-linecap="round" stroke-linejoin="round"/>
<path d="M285.309 235.114L275.44 248.554C275.44 248.554 282.57 254.154 286.736 257.706C290.902 261.258 299.658 269.335 302.582 270.019C305.507 270.704 310.141 270.384 310.365 264.765C310.589 259.146 308.611 257.655 305.206 253.885C301.802 250.115 285.309 235.114 285.309 235.114Z" fill="#0ABAB5" stroke="#263238" stroke-linecap="round" stroke-linejoin="round"/>
<path d="M286.263 181.078C287.977 183.758 288.92 186.858 288.989 190.038C288.957 193.053 285.757 198.358 285.034 201.014C284.31 203.67 281.949 207.414 275.235 210.058C270.115 212.067 267.35 214.058 265.091 212.112C262.832 210.166 257.002 201.546 257.002 201.546C257.002 201.546 268.445 189.853 272.157 186.333C275.869 182.813 281.392 179.414 286.263 181.078Z" fill="white" stroke="#263238" stroke-linecap="round" stroke-linejoin="round"/>
<path d="M278.474 201.878C277.97 202.226 277.393 202.454 276.787 202.545C276.182 202.636 275.563 202.588 274.979 202.403" stroke="#263238" stroke-linecap="round" stroke-linejoin="round"/>
<path d="M269.642 202.135C269.642 202.135 270.135 204.509 273.674 205.667" stroke="#263238" stroke-linecap="round" stroke-linejoin="round"/>
<path d="M272.381 191.933C272.384 192.151 272.448 192.363 272.566 192.546C272.684 192.729 272.851 192.875 273.048 192.968C273.245 193.06 273.465 193.095 273.681 193.068C273.897 193.042 274.101 192.955 274.27 192.817C274.439 192.68 274.566 192.497 274.636 192.291C274.706 192.085 274.717 191.863 274.666 191.651C274.616 191.439 274.507 191.246 274.352 191.093C274.197 190.94 274.002 190.834 273.789 190.787C273.621 190.77 273.451 190.785 273.29 190.833C273.128 190.881 272.978 190.961 272.847 191.067C272.716 191.174 272.607 191.305 272.527 191.454C272.447 191.602 272.398 191.765 272.381 191.933Z" fill="#263238"/>
<path d="M276.931 192.125C276.956 191.868 276.922 191.608 276.831 191.367C276.74 191.125 276.594 190.908 276.405 190.731C276.216 190.555 275.99 190.424 275.742 190.35C275.495 190.275 275.234 190.258 274.979 190.301" stroke="#263238" stroke-linecap="round" stroke-linejoin="round"/>
<path d="M282.16 195.235C282.162 195.415 282.214 195.59 282.311 195.741C282.408 195.892 282.546 196.012 282.708 196.089C282.87 196.165 283.051 196.194 283.229 196.172C283.407 196.151 283.575 196.079 283.715 195.966C283.854 195.853 283.959 195.703 284.016 195.533C284.074 195.363 284.083 195.18 284.041 195.006C284 194.831 283.91 194.672 283.782 194.546C283.654 194.42 283.494 194.333 283.318 194.294C283.041 194.269 282.764 194.353 282.548 194.529C282.331 194.705 282.192 194.958 282.16 195.235Z" fill="#263238"/>
<path d="M285.571 195.658C285.597 195.4 285.562 195.14 285.471 194.898C285.379 194.655 285.233 194.438 285.043 194.261C284.854 194.085 284.626 193.954 284.378 193.88C284.13 193.806 283.868 193.79 283.613 193.834" stroke="#263238" stroke-linecap="round" stroke-linejoin="round"/>
<path d="M280.08 189.2C279.161 188.366 278.021 187.815 276.797 187.613C275.599 187.51 274.4 187.797 273.379 188.432" stroke="#263238" stroke-linecap="round" stroke-linejoin="round"/>
<path d="M284.336 192.131C284.336 192.131 285.942 192.272 286.666 194.512" stroke="#263238" stroke-linecap="round" stroke-linejoin="round"/>
<path d="M291.658 175.606C291.658 175.606 284.394 182.557 280.298 185.776C276.202 188.995 274.538 188.49 270.698 193.52C266.858 198.55 263.319 202.845 258.096 204.816C252.874 206.787 246.435 204.816 244.016 202.858C241.597 200.899 241.002 199.306 241.002 199.306C241.002 199.306 244.791 199.178 244.535 195.555C243.427 180.157 243.363 178.179 244.675 173.226C245.987 168.272 253.751 161.77 265.232 161.987C276.714 162.205 286.947 169.552 289.175 170.947C291.402 172.342 292.515 173.578 291.658 175.606Z" fill="#263238" stroke="#263238" stroke-linecap="round" stroke-linejoin="round"/>
<path d="M249.942 195.677C249.218 195.466 248.552 195.091 247.997 194.58C247.442 194.069 247.013 193.437 246.742 192.733" stroke="#696969" stroke-linecap="round" stroke-linejoin="round"/>
<path d="M281.565 176.573C277.194 180.157 270.582 185.77 266.205 190.422C263.007 193.899 258.577 195.989 253.859 196.246" stroke="#696969" stroke-linecap="round" stroke-linejoin="round"/>
<path d="M286.064 172.963C286.064 172.963 285.424 173.456 284.375 174.301" stroke="#696969" stroke-linecap="round" stroke-linejoin="round"/>
<path d="M256.266 188.138C255.349 188.651 254.373 189.053 253.36 189.334C247.869 190.659 246.198 183.434 246.198 183.434" stroke="#696969" stroke-linecap="round" stroke-linejoin="round"/>
<path d="M273.917 175.645C269.322 179.402 264.539 182.925 259.587 186.198" stroke="#696969" stroke-linecap="round" stroke-linejoin="round"/>
<path d="M247.83 179.312C247.83 179.312 249.334 181.015 253.686 180.592C258.038 180.17 262.864 175.958 262.864 175.958" stroke="#696969" stroke-linecap="round" stroke-linejoin="round"/>
<path d="M250.582 279.094L246.454 296.829" stroke="#263238" stroke-linecap="round" stroke-linejoin="round"/>
<path d="M168.022 320.643L172.304 287.901C172.304 287.901 169.648 283.421 158.928 282.781C148.208 282.141 122.634 292.381 122.634 292.381L116.31 317.738L168.022 320.643Z" fill="#263238" stroke="#263238" stroke-linecap="round" stroke-linejoin="round"/>
<path d="M131.382 198.16L109.814 188.816L128.074 174.141L125.744 169.066C125.744 169.066 104.714 176.035 99.92 178.666C95.1264 181.296 85.296 185.36 85.168 187.702C85.04 190.045 109.424 211.434 115.888 214.992C122.352 218.55 130.762 224.547 130.762 224.547C130.762 224.547 128.202 260.445 128.08 262.186C127.958 263.926 118.614 302.237 118.55 303.395C118.486 304.554 122.723 306.064 129.712 305.878C136.701 305.693 146.474 297.219 148.912 295.03C151.35 292.842 157.315 290.269 159.939 290.122C162.563 289.974 172.272 287.901 172.272 287.901L186.736 242.205C186.736 242.205 192.56 216.08 187.837 212.611C183.114 209.142 163.517 205.443 163.517 205.443L142.141 203.088L131.382 198.16Z" fill="#0ABAB5" stroke="#263238" stroke-linecap="round" stroke-linejoin="round"/>
<path d="M143.12 289.366C145.347 287.754 148.24 286.09 151.107 285.648C155.087 285.077 159.1 284.775 163.12 284.746" fill="#0ABAB5"/>
<path d="M143.12 289.366C145.347 287.754 148.24 286.09 151.107 285.648C155.087 285.077 159.1 284.775 163.12 284.746" stroke="#263238" stroke-linecap="round" stroke-linejoin="round"/>
<path d="M139.03 292.88C139.03 292.88 139.504 292.387 140.31 291.651L139.03 292.88Z" fill="#0ABAB5"/>
<path d="M139.03 292.88C139.03 292.88 139.504 292.387 140.31 291.651" stroke="#263238" stroke-linecap="round" stroke-linejoin="round"/>
<path d="M147.338 283.574C146.373 283.844 145.437 284.204 144.541 284.65L147.338 283.574Z" fill="#0ABAB5"/>
<path d="M147.338 283.574C146.373 283.844 145.437 284.204 144.541 284.65" stroke="#263238" stroke-linecap="round" stroke-linejoin="round"/>
<path d="M160.093 282.999C156.851 282.558 153.565 282.545 150.32 282.96L160.093 282.999Z" fill="#0ABAB5"/>
<path d="M160.093 282.999C156.851 282.558 153.565 282.545 150.32 282.96" stroke="#263238" stroke-linecap="round" stroke-linejoin="round"/>
<path d="M126.634 209.61L125.942 207.126" stroke="#263238" stroke-linecap="round" stroke-linejoin="round"/>
<path d="M130.781 224.547L127.382 212.304" stroke="#263238" stroke-linecap="round" stroke-linejoin="round"/>
<path d="M109.814 188.784C106.821 189.115 103.793 188.946 100.854 188.285" stroke="#263238" stroke-linecap="round" stroke-linejoin="round"/>
<path d="M174.096 235.504L184.176 262.698C184.176 262.698 171.741 282.352 169.565 284.842C167.756 286.797 165.817 288.628 163.76 290.32L159.997 290.109C158.256 290.013 153.962 288.899 152.995 290.589C152.029 292.279 152.202 294.327 148.97 295.018C145.738 295.709 148.579 296.739 150.608 296.855C152.637 296.97 154.813 294.474 155.677 294.519L157.706 294.634L166.736 304.727L171.037 295.376C171.037 295.376 189.814 276.656 192.906 273.341C195.997 270.026 200.989 263.914 200.989 263.914C200.989 263.914 191.92 223.306 191.011 218.314C190.102 213.322 187.408 209.994 178.634 210.935" fill="#0ABAB5"/>
<path d="M174.096 235.504L184.176 262.698C184.176 262.698 171.741 282.352 169.565 284.842C167.756 286.797 165.817 288.628 163.76 290.32L159.997 290.109C158.256 290.013 153.962 288.899 152.995 290.589C152.029 292.279 152.202 294.327 148.97 295.018C145.738 295.709 148.579 296.739 150.608 296.855C152.637 296.97 154.813 294.474 155.677 294.519L157.706 294.634L166.736 304.727L171.037 295.376C171.037 295.376 189.814 276.656 192.906 273.341C195.997 270.026 200.989 263.914 200.989 263.914C200.989 263.914 191.92 223.306 191.011 218.314C190.102 213.322 187.408 209.994 178.634 210.935" stroke="#263238" stroke-linecap="round" stroke-linejoin="round"/>
<path d="M166.07 288.317C164.79 289.482 163.734 290.333 163.734 290.333L159.971 290.122C158.23 290.026 153.936 288.912 152.97 290.602C152.003 292.291 152.176 294.339 148.944 295.03C145.712 295.722 148.554 296.752 150.582 296.867C152.611 296.983 154.787 294.486 155.651 294.531L157.68 294.647L166.71 304.739L171.011 295.389L172.17 294.23L166.07 288.317Z" fill="white" stroke="#263238" stroke-linecap="round" stroke-linejoin="round"/>
<path d="M150.557 225.13L145.68 220.042L139.037 225.002L147.037 211.165L151.594 212.797L150.557 225.13Z" fill="white" stroke="#263238" stroke-linecap="round" stroke-linejoin="round"/>
<path d="M145.29 211.6C145.29 211.6 148.362 218.307 149.232 221.11C150.102 223.914 150.557 225.143 150.557 225.143L164.131 203.875C164.131 203.875 160.445 195.933 160.067 193.501C159.905 192.219 159.508 190.978 158.896 189.84C158.896 189.84 158.333 196.88 153.219 202.083C150.302 205.017 147.648 208.201 145.29 211.6Z" fill="white" stroke="#263238" stroke-linecap="round" stroke-linejoin="round"/>
<path d="M145.29 211.6C145.29 211.6 146.435 214.102 147.53 216.72L153.552 205.757L151.395 204.029C149.178 206.4 147.137 208.93 145.29 211.6Z" fill="#263238" stroke="#263238" stroke-linecap="round" stroke-linejoin="round"/>
<path d="M152.106 219.018L150.557 225.13L156.323 220.458L152.106 219.018Z" fill="white" stroke="#263238" stroke-linecap="round" stroke-linejoin="round"/>
<path d="M163.478 200.214L152.106 219.018L159.325 228.368L168.483 207.075L163.478 200.214Z" fill="white" stroke="#263238" stroke-linecap="round" stroke-linejoin="round"/>
<path d="M124.502 182.935C124.502 182.935 127.523 193.815 128.854 197.853C130.186 201.891 132.579 205.309 136.086 207.402C139.594 209.495 140.982 212.522 144.938 212.733C148.893 212.944 152.778 208.336 153.738 206.659C154.698 204.983 159.274 200.259 159.645 196.637C160.016 193.015 160.221 189.418 160.221 189.418C161.162 188.333 161.86 187.058 162.265 185.68C162.67 184.302 162.774 182.852 162.57 181.431C161.795 176.727 159.107 175.37 159.107 175.37C159.107 175.37 156.163 166.231 146.947 164.336C137.731 162.442 125.827 171.267 125.322 174.519C124.956 177.083 124.742 179.667 124.682 182.256L124.502 182.935Z" fill="white" stroke="#263238" stroke-linecap="round" stroke-linejoin="round"/>
<path d="M133.91 192.739C133.91 192.739 132.842 196.477 133.622 197.898C134.403 199.318 136.733 197.898 137.802 197.258" stroke="#263238" stroke-linecap="round" stroke-linejoin="round"/>
<path d="M134.826 201.072C134.826 201.072 137.162 202.582 140.746 200.195C142.892 198.76 144.52 196.673 145.392 194.243" stroke="#263238" stroke-linecap="round" stroke-linejoin="round"/>
<path d="M145.155 187.178C145.145 187.428 145.064 187.67 144.922 187.876C144.781 188.082 144.584 188.244 144.354 188.344C144.124 188.443 143.871 188.476 143.624 188.438C143.377 188.4 143.145 188.293 142.956 188.13C142.766 187.967 142.627 187.753 142.553 187.514C142.479 187.275 142.474 187.02 142.539 186.778C142.604 186.537 142.735 186.318 142.918 186.148C143.101 185.977 143.329 185.862 143.574 185.815C143.963 185.793 144.345 185.923 144.64 186.177C144.935 186.431 145.119 186.79 145.155 187.178Z" fill="#263238"/>
<path d="M139.939 187.28C139.917 186.984 139.963 186.688 140.074 186.413C140.185 186.138 140.359 185.893 140.581 185.696C140.803 185.5 141.067 185.357 141.353 185.28C141.639 185.203 141.94 185.193 142.23 185.251" stroke="#263238" stroke-linecap="round" stroke-linejoin="round"/>
<path d="M133.866 190.659C133.859 190.866 133.794 191.067 133.678 191.238C133.561 191.41 133.399 191.545 133.209 191.627C133.02 191.71 132.81 191.737 132.606 191.706C132.401 191.675 132.21 191.586 132.053 191.45C131.897 191.314 131.783 191.137 131.723 190.938C131.664 190.74 131.662 190.529 131.718 190.33C131.773 190.13 131.885 189.951 132.038 189.812C132.192 189.673 132.382 189.581 132.586 189.546C132.901 189.531 133.21 189.639 133.449 189.846C133.687 190.054 133.836 190.345 133.866 190.659Z" fill="#263238"/>
<path d="M129.93 191.037C129.907 190.741 129.953 190.443 130.065 190.168C130.176 189.893 130.35 189.647 130.573 189.45C130.796 189.254 131.061 189.111 131.348 189.035C131.635 188.958 131.936 188.949 132.227 189.008" stroke="#263238" stroke-linecap="round" stroke-linejoin="round"/>
<path d="M127.664 189.2C127.664 189.2 127.811 188.022 129.686 187.024C131.562 186.026 132.112 185.974 132.112 185.974" stroke="#263238" stroke-linecap="round" stroke-linejoin="round"/>
<path d="M136.419 183.818C137.459 183.157 138.646 182.763 139.875 182.672C141.306 182.579 142.743 182.739 144.118 183.146" stroke="#263238" stroke-linecap="round" stroke-linejoin="round"/>
<path d="M134.237 154.845C134.237 154.845 129.078 152.976 125.046 153.629C121.014 154.282 112.816 161.354 114.09 164.573C115.363 167.792 120.778 165.123 120.304 167.024C119.83 168.925 113.149 171.702 112.15 176.547C111.152 181.392 114.109 186.992 118.992 187.261C123.875 187.53 126.358 178.941 126.947 181.405C127.536 183.869 129.699 184.182 133.693 180.906C137.686 177.629 141.475 171.53 142.653 173.174C143.83 174.819 143.933 180.074 145.162 180.317C146.39 180.56 148.496 179.101 149.898 180.054C151.299 181.008 152.195 184.387 153.322 183.747C154.448 183.107 153.994 181.507 154.602 180.144C155.21 178.781 155.293 176.029 158.109 175.786C159.19 175.696 159.747 175.702 159.747 175.702C159.747 175.702 161.872 166.89 158.749 161.117C155.626 155.344 144.669 153.322 142.109 153.878C140.599 154.2 139.117 154.645 137.68 155.21L134.237 154.845Z" fill="#263238" stroke="#263238" stroke-linecap="round" stroke-linejoin="round"/>
<path d="M156.362 169.571C157.14 169.903 157.853 170.371 158.467 170.954" stroke="#696969" stroke-linecap="round" stroke-linejoin="round"/>
<path d="M144.714 171.92C144.714 171.92 149.571 168.528 154.211 169.015" stroke="#696969" stroke-linecap="round" stroke-linejoin="round"/>
<path d="M135.19 166.967C131.875 168.451 127.907 171.005 126.768 175.011C124.714 182.256 134.563 176.291 136.131 174.371C137.699 172.451 132.758 172.144 131.498 173.821" stroke="#696969" stroke-linecap="round" stroke-linejoin="round"/>
<path d="M140.131 165.271C139.078 165.525 138.042 165.843 137.027 166.224" stroke="#696969" stroke-linecap="round" stroke-linejoin="round"/>
<path d="M141.821 159.427C138.675 159.942 135.615 160.885 132.726 162.23C126.435 165.379 117.558 173.04 116.362 178.8" stroke="#696969" stroke-linecap="round" stroke-linejoin="round"/>
<path d="M147.76 158.704C147.76 158.704 146.058 158.774 143.613 159.133" stroke="#696969" stroke-linecap="round" stroke-linejoin="round"/>
<path d="M231.517 134.595H258.397C259.585 134.595 260.724 135.067 261.565 135.907C262.405 136.748 262.877 137.887 262.877 139.075V153.584C262.877 154.772 262.405 155.912 261.565 156.752C260.724 157.592 259.585 158.064 258.397 158.064H239.197L240.246 165.744L233.744 158.064H231.498C230.309 158.064 229.17 157.592 228.33 156.752C227.49 155.912 227.018 154.772 227.018 153.584V139.075C227.018 138.485 227.134 137.901 227.36 137.356C227.587 136.812 227.918 136.317 228.337 135.901C228.755 135.484 229.251 135.155 229.796 134.931C230.342 134.707 230.927 134.593 231.517 134.595Z" fill="white" stroke="#263238" stroke-linecap="round" stroke-linejoin="round"/>
<path d="M241.515 150.277C243.984 147.971 244.116 144.099 241.809 141.63C239.503 139.16 235.631 139.028 233.162 141.335C230.692 143.642 230.56 147.513 232.867 149.983C235.174 152.452 239.046 152.584 241.515 150.277Z" fill="#0ABAB5" stroke="#263238" stroke-linecap="round" stroke-linejoin="round"/>
<path d="M234.89 143.677C235.271 143.366 235.734 143.172 236.224 143.117C236.713 143.063 237.207 143.15 237.648 143.37" stroke="#263238" stroke-linecap="round" stroke-linejoin="round"/>
<path d="M240.707 143.677C240.871 143.555 241.061 143.474 241.262 143.441C241.464 143.408 241.67 143.423 241.864 143.486C242.058 143.548 242.234 143.656 242.378 143.801C242.522 143.945 242.629 144.122 242.691 144.317" stroke="#263238" stroke-linecap="round" stroke-linejoin="round"/>
<path d="M236.118 146.583C236.423 146.94 236.798 147.23 237.221 147.434C237.644 147.638 238.104 147.751 238.573 147.768C239.042 147.784 239.509 147.702 239.945 147.528C240.381 147.354 240.776 147.091 241.104 146.755" stroke="#263238" stroke-linecap="round" stroke-linejoin="round"/>
<path opacity="0.2" d="M236.118 146.051C236.118 145.734 236.024 145.423 235.848 145.159C235.671 144.895 235.42 144.689 235.127 144.567C234.833 144.446 234.51 144.414 234.199 144.476C233.887 144.538 233.601 144.691 233.376 144.915C233.151 145.14 232.998 145.426 232.936 145.738C232.874 146.049 232.906 146.372 233.028 146.666C233.149 146.959 233.355 147.21 233.619 147.387C233.884 147.563 234.194 147.658 234.512 147.658C234.938 147.658 235.347 147.488 235.648 147.187C235.949 146.886 236.118 146.477 236.118 146.051Z" fill="black"/>
<path opacity="0.2" d="M243.152 146.39C243.151 146.111 243.067 145.838 242.91 145.606C242.754 145.375 242.533 145.194 242.274 145.088C242.016 144.982 241.732 144.955 241.458 145.01C241.184 145.066 240.932 145.201 240.735 145.399C240.538 145.597 240.404 145.849 240.35 146.123C240.296 146.397 240.324 146.681 240.431 146.94C240.539 147.198 240.72 147.418 240.952 147.573C241.185 147.728 241.458 147.811 241.738 147.811C241.924 147.811 242.108 147.774 242.28 147.703C242.452 147.631 242.608 147.527 242.74 147.395C242.871 147.263 242.975 147.106 243.046 146.934C243.117 146.761 243.153 146.577 243.152 146.39Z" fill="black"/>
<path d="M255.841 150.477C258.405 148.275 258.699 144.412 256.498 141.849C254.296 139.285 250.434 138.991 247.87 141.192C245.306 143.394 245.012 147.257 247.214 149.82C249.415 152.384 253.278 152.678 255.841 150.477Z" fill="#0ABAB5" stroke="#263238" stroke-linecap="round" stroke-linejoin="round"/>
<path d="M249.398 143.677C249.779 143.367 250.241 143.174 250.729 143.119C251.217 143.065 251.711 143.152 252.15 143.37" stroke="#263238" stroke-linecap="round" stroke-linejoin="round"/>
<path d="M255.21 143.677C255.373 143.554 255.564 143.472 255.766 143.438C255.968 143.404 256.175 143.419 256.37 143.481C256.566 143.544 256.743 143.653 256.887 143.798C257.031 143.943 257.139 144.121 257.2 144.317" stroke="#263238" stroke-linecap="round" stroke-linejoin="round"/>
<path d="M250.621 146.583C250.925 146.94 251.301 147.23 251.723 147.434C252.146 147.638 252.607 147.751 253.076 147.768C253.545 147.784 254.012 147.702 254.448 147.528C254.883 147.354 255.278 147.091 255.606 146.755" stroke="#263238" stroke-linecap="round" stroke-linejoin="round"/>
<path opacity="0.2" d="M250.621 146.051C250.621 145.734 250.527 145.423 250.35 145.159C250.174 144.895 249.923 144.689 249.629 144.567C249.336 144.446 249.013 144.414 248.701 144.476C248.389 144.538 248.103 144.691 247.878 144.915C247.654 145.14 247.501 145.426 247.439 145.738C247.377 146.049 247.409 146.372 247.53 146.666C247.652 146.959 247.858 147.21 248.122 147.387C248.386 147.563 248.697 147.658 249.014 147.658C249.44 147.658 249.849 147.488 250.15 147.187C250.452 146.886 250.621 146.477 250.621 146.051Z" fill="black"/>
<path opacity="0.2" d="M257.661 146.39C257.66 146.111 257.576 145.838 257.419 145.606C257.263 145.375 257.042 145.194 256.783 145.088C256.525 144.982 256.241 144.955 255.967 145.01C255.693 145.066 255.441 145.201 255.244 145.399C255.047 145.597 254.913 145.849 254.859 146.123C254.805 146.397 254.833 146.681 254.94 146.94C255.048 147.198 255.229 147.418 255.461 147.573C255.694 147.728 255.967 147.811 256.246 147.811C256.433 147.811 256.617 147.774 256.789 147.703C256.961 147.631 257.117 147.527 257.249 147.395C257.38 147.263 257.484 147.106 257.555 146.934C257.626 146.761 257.662 146.577 257.661 146.39Z" fill="black"/>
<path d="M184.24 134.595H157.36C156.172 134.595 155.032 135.067 154.192 135.907C153.352 136.748 152.88 137.887 152.88 139.075V153.584C152.88 154.772 153.352 155.912 154.192 156.752C155.032 157.592 156.172 158.064 157.36 158.064H176.56L175.51 165.744L182.013 158.064H184.24C185.428 158.064 186.568 157.592 187.408 156.752C188.248 155.912 188.72 154.772 188.72 153.584V139.075C188.72 137.887 188.248 136.748 187.408 135.907C186.568 135.067 185.428 134.595 184.24 134.595Z" fill="white" stroke="#263238" stroke-linecap="round" stroke-linejoin="round"/>
<path d="M180.739 143.498C180.738 142.295 180.331 141.129 179.584 140.186C178.838 139.244 177.795 138.581 176.625 138.304C175.456 138.027 174.227 138.153 173.137 138.661C172.047 139.169 171.161 140.03 170.621 141.104C170.081 140.03 169.194 139.169 168.105 138.661C167.015 138.153 165.786 138.027 164.616 138.304C163.446 138.581 162.404 139.244 161.657 140.186C160.911 141.129 160.504 142.295 160.502 143.498C160.502 146.224 162.589 149.002 164.656 150.621C165.693 151.434 170.416 154.589 170.557 154.506C170.698 154.589 175.421 151.434 176.458 150.621C178.422 149.085 180.739 146.102 180.739 143.498Z" fill="#0ABAB5" stroke="#263238" stroke-linecap="round" stroke-linejoin="round"/>
</svg>
