<svg width="414" height="168" viewBox="0 0 414 168" fill="none" xmlns="http://www.w3.org/2000/svg">
<ellipse cx="406" cy="180.971" rx="155" ry="145.971" fill="#0ABAB5"/>
<ellipse cx="7" cy="179.105" rx="155" ry="144.105" fill="#0ABAB5"/>
<path fill-rule="evenodd" clip-rule="evenodd" d="M120.588 83.7351C99.7905 105.314 87 134.663 87 167V217C87 283.274 140.726 337 207 337C273.274 337 327 283.274 327 217V167C327 134.461 314.049 104.947 293.021 83.3311C267.587 100.289 238.032 110 206.5 110C175.22 110 145.884 100.443 120.588 83.7351Z" fill="#0ABAB5"/>
<path d="M207.5 52L203.367 48.2594C188.69 35.0256 179 26.2975 179 15.5858C179 6.85777 185.897 0 194.675 0C199.634 0 204.393 2.29537 207.5 5.92262C210.606 2.29537 215.366 0 220.325 0C229.103 0 236 6.85777 236 15.5858C236 26.2975 226.31 35.0256 211.632 48.2877L207.5 52Z" fill="#0ABAB5"/>
<path d="M247.486 62.8026L246.137 58.6139C241.326 43.7722 238.146 33.9797 242.374 26.6561C245.819 20.6887 253.242 18.7225 259.243 22.1875C262.634 24.145 264.982 27.5931 265.674 31.2993C269.23 30.0456 273.39 30.355 276.78 32.3125C282.782 35.7775 284.79 43.1887 281.345 49.1561C277.117 56.4797 267.047 58.6222 251.776 61.8958L247.486 62.8026Z" fill="#0ABAB5"/>
<path d="M167.012 62.8026L162.71 61.8764C147.451 58.6222 137.381 56.4797 133.152 49.1561C129.707 43.1887 131.716 35.7775 137.717 32.3125C141.108 30.355 145.268 30.0456 148.823 31.2993C149.516 27.5931 151.864 24.145 155.254 22.1875C161.256 18.7225 168.678 20.6887 172.123 26.6561C176.352 33.9797 173.172 43.7722 168.372 58.6333L167.012 62.8026Z" fill="#0ABAB5"/>
<line x1="134" y1="138" x2="280" y2="138" stroke="white" stroke-width="4" stroke-linecap="round"/>
</svg>
