<svg width="414" height="155" viewBox="0 0 414 155" fill="none" xmlns="http://www.w3.org/2000/svg">
<path d="M207.5 52L203.367 48.2594C188.69 35.0256 179 26.2975 179 15.5858C179 6.85777 185.897 0 194.675 0C199.634 0 204.393 2.29537 207.5 5.92262C210.606 2.29537 215.366 0 220.325 0C229.103 0 236 6.85777 236 15.5858C236 26.2975 226.31 35.0256 211.632 48.2877L207.5 52Z" fill="#0ABAB5"/>
<path d="M247.486 62.8026L246.137 58.6139C241.326 43.7722 238.146 33.9797 242.374 26.6561C245.819 20.6887 253.242 18.7225 259.243 22.1875C262.634 24.145 264.982 27.5931 265.674 31.2993C269.23 30.0456 273.39 30.355 276.78 32.3125C282.782 35.7775 284.79 43.1887 281.345 49.1561C277.117 56.4797 267.047 58.6222 251.776 61.8958L247.486 62.8026Z" fill="#0ABAB5"/>
<path d="M167.012 62.8026L162.71 61.8764C147.451 58.6222 137.381 56.4797 133.152 49.1561C129.707 43.1887 131.716 35.7775 137.717 32.3125C141.108 30.355 145.268 30.0456 148.823 31.2993C149.516 27.5931 151.864 24.145 155.254 22.1875C161.256 18.7225 168.678 20.6887 172.123 26.6561C176.352 33.9797 173.172 43.7722 168.372 58.6333L167.012 62.8026Z" fill="#0ABAB5"/>
<line x1="135" y1="118" x2="281" y2="118" stroke="white" stroke-width="4" stroke-linecap="round"/>
<path d="M462 73.5C462 214.118 346.231 298.788 205.675 298.788C65.1182 298.788 -204.5 190.806 -60 79.0001C84.5 -32.8054 65.1182 98.2874 205.675 98.2874C346.231 98.2874 327 -28.3894 462 73.5Z" fill="#0ABAB5"/>
<line x1="134" y1="128" x2="280" y2="128" stroke="white" stroke-width="4" stroke-linecap="round"/>
</svg>
